<svg xmlns="http://www.w3.org/2000/svg" width="1355.823" height="395.885" viewBox="0 0 1355.823 395.885">
  <g id="endrich-logo-weiß" transform="translate(-18014 -18057.117)">
    <g id="_1787507649088" transform="translate(17400 2617.116)">
      <path id="Pfad_9" data-name="Pfad 9" d="M1069.474,15592.708c66.038-17.555,74.884,106.086,20.984,118.84-34.973,8.3-51.637-18.651-54.792-47.864-3.7-33.739,5.76-63.569,33.807-71.044Zm-400.889,37.922c-1.166-23.247,16.869-41.763,40.939-41.557,23.59.206,40.528,17.692,39.979,41.9Zm-.96,41.831c-2.88-5.691-1.646-5.486-1.371-7.955,13.235-2.537,129.332-2.812,138.659.686l-.274,84.965,50.4.068,2.332-124.395c3.84-40.871,67.752-50.951,73.924-9.6,5.829,38.95-2.537,93.674,1.371,134.612l51.774.137.137-64.186c3.84,5.144,5.349,14.4,8.3,21.053,3.292,7.406,6.72,12.48,10.9,18.584,17.9,26.2,57.191,36.139,87.022,25.646,26.127-9.188,22.835-18.721,33.122-25.373v24.481l51.363.068c.892-28.458,1.852-259.144-.891-270.253h-51.637l-.411,95.8c-9.189-8.366-9.943-17.692-31.613-25.989-15.5-5.9-35.11-6.173-51.088-1.029-31.887,10.285-43.065,30.585-54.311,62.4-1.989-5.349-2.332-16.6-4.8-24.139-14.195-43.2-68.712-49.785-97.582-35.11-17.007,8.641-17.144,13.852-28.664,27.225l-.206-29.145-50.06.892-.48,79.89c-6.172-11.452-6.446-43.271-29.144-63.432-14.949-13.3-41.625-23.453-70.152-22.081-99.708,4.662-103.411,116.714-74.678,168.694,33.259,60.14,154.088,56.438,171.369-22.356H747.927c-8.778,20.5-28.939,24.825-48.345,20.024-18.31-4.526-30.242-18.515-31.887-40.116Z" transform="translate(0 -38.188)" fill="#fff" fill-rule="evenodd"/>
      <path id="Pfad_10" data-name="Pfad 10" d="M11613.641,15626.853l52.255.48.138,55.478h-51.021l-6.034,15.086a34.654,34.654,0,0,1-9.052,11.795c-15.772,13.1-62.129,19.338-63.5-50.951-1.233-66.518,41.9-71.249,61.1-59.111C11606.646,15605.389,11610.419,15613.206,11613.641,15626.853Zm50.336-16.115c-9.6-43.682-56.3-68.986-110.887-57.6-48.207,10.013-69.535,50.2-70.357,105.536-.823,55.478,24.069,93.125,73.237,100.668,49.237,7.544,101.217-16.595,107.457-64.117l3.429,59.729,50.677-.069-.069-108.348c-.273-8.092-1.988-8.3,1.647-14.538,4.251-43.683,66.929-51.088,74.061-12.687,4.389,23.864-1.715,103.273,1.44,135.916l51.293.343c3.43-16.6.96-68.026.96-88.257,0-27.155,3.429-60.483-7.886-83.249-9.12-18.31-26.676-31.339-55.477-33.26-25.647-1.714-57.946,10.219-61.717,28.6l-4.322,2.606.55-96-51.089.411-.205,127.344c-5.212-.068-1.372.686-2.675-3.086Z" transform="translate(-10123.392 -42.846)" fill="#fff" fill-rule="evenodd"/>
      <path id="Pfad_11" data-name="Pfad 11" d="M8948.274,16436.6l-.274,199h50.678c-.48-14.055-2.4-110.061,2.33-114.312.617-36.07,36.688-38.4,62.473-36.824l-.206-52.184c-49.785-6.379-56.712,31.816-66.175,37.852l.205-33.395-49.1-.07Z" transform="translate(-7762.497 -923.574)" fill="#fff" fill-rule="evenodd"/>
      <path id="Pfad_12" data-name="Pfad 12" d="M10754.334,16503l-50.061.412-.273,198.729,50.539.068Z" transform="translate(-9398.079 -990.105)" fill="#fff" fill-rule="evenodd"/>
      <path id="Pfad_13" data-name="Pfad 13" d="M10755.511,15441l-48.825.274-.686,47.8,50.746-.138Z" transform="translate(-9399.941 -0.931)" fill="#fff" fill-rule="evenodd"/>
      <path id="Pfad_14" data-name="Pfad 14" d="M10720.606,16503l.205,199.209-50.608-.068.344-198.662c-2.4,2.881-1.234-.959-1.988,5.146-.138.959.067,5.691.067,6.992.069,4.047,0,8.16,0,12.207,0,8.092-.136,16.254-.067,24.344.067,34.492-2.059,128.988.479,150.453,7.887,2.469,43.684,1.99,52.872.48,2.949-23.043,1.577-75.639.822-100.531l-.137-76.461c0-6.789,1.509-17.074-1.852-22.973Z" transform="translate(-9364.35 -990.105)" fill="#fff" fill-rule="evenodd"/>
      <path id="Pfad_15" data-name="Pfad 15" d="M10476.148,19973.637c0,2.539.549,1.922-2.125,1.441-3.361,9.188,3.086-3.5-.48,5.211.343-.41,1.166-1.164,1.3-.754.206.412,1.165-.617,1.44-.754.206-.137,1.028-.41,1.509-.686,14.2-8.639,18.1,6.65,18.1,18.926l1.783,38.881c1.576-2.191,1.1-.273,2.057-4.18a40.006,40.006,0,0,0,.411-5.076l-.205-29.693c.205-14.059,3.841-22.012,18.585-20.434,9.873,6.648,7.131,13.027,7.063,27.43v17.418c-.068,8.982-.823,9.531,1.646,14.332,4.525-3.088,2.947-3.02,2.879-10.836-.068-4.664-.068-9.328-.068-13.988,0-7.545.617-18.311-.344-25.441-2.125-16.047-17.349-15.225-24-10.014l-7.133,6.174c-4.731-10.631-10.354-9.6-22.424-8.023Zm-5.35-.205c-7.541.549-3.016-.41-4.387,4.32v8.777l-.412,49.033h4.184c-.687-8.23-.48-16.393-.48-24.687,0-7.064-2.057-19.82,2.4-23.934l1.1-4.457-2.879-2.469c-.137-.068-.617-.275-.892-.41l1.233-6.174Z" transform="translate(-9176.399 -4221.278)" fill="#fff" fill-rule="evenodd"/>
      <path id="Pfad_16" data-name="Pfad 16" d="M11669.515,19972.936c11.315,15.361,10.9,69.33-15.154,54.654-8.709-4.937-9.326-22.766-8.366-34.973,1.3-16.184,7.337-23.385,23.453-19.682Zm-23.452,49.443c3.154,4.389,3.428,7.885,9.12,9.8,31.819,10.629,31.271-50.605,17.624-61.238-5.486-4.25-18.378-7.406-26.4,7.408l-2.263-9.053c-4.8,3.086-2.743,3.291-2.743,19.887v45.191c0,5.76-2.194,16.115,2.743,18.447,4.251-6.311,1.165-21.74,1.988-30.447Z" transform="translate(-10270.743 -4216.941)" fill="#fff" fill-rule="evenodd"/>
      <path id="Pfad_17" data-name="Pfad 17" d="M19805.207,20000.836c-.893-17.008,4.594-24.895,21.463-23.729,7.406,7.2,9.533,9.67,8.709,23.932Zm32.916,15.77c-7.957,5.35-4.186,21.535-22.082,17.211-10.15-2.4-11.932-16.387-11.109-28.867l35.248.07c.342-16.871-2.332-32.437-19.475-32.1-15.635.273-20.162,12.826-20.572,28.322-.412,15.979.82,33.258,13.988,36.209,8.23,1.852,14.881.135,19.27-4.391,3.7-3.771,6.994-10.561,4.664-16.525Z" transform="translate(-17870.385 -4222.073)" fill="#fff" fill-rule="evenodd"/>
      <path id="Pfad_18" data-name="Pfad 18" d="M8969.29,16588.689c-4.663,4.32-2.743,100.326-2.331,114.314h-50.677l.274-199c-2.606,4.252-2.057,4.113-1.988,12.41.273,42.176-1.92,166.707.617,187.279,9.051,1.854,44.094,2.059,53.213-.139l.892-114.93Z" transform="translate(-7730.779 -991.036)" fill="#fff" fill-rule="evenodd"/>
      <path id="Pfad_19" data-name="Pfad 19" d="M14024.754,20001.1l-30.311.07C13992.385,19968.734,14026.6,19967.637,14024.754,20001.1Zm1.439,15.5c-1.3,2.2-.344.139-1.783,3.84-.48,1.3-.686,2.469-1.234,4.045-5.281,14.541-31.406,18.449-28.6-19.475l35.521-.068c-1.234-15.977-1.783-31.748-19.543-31.953-15.156-.139-20.5,13.645-21.121,28.252-2.332,50.264,31.477,39.705,37.785,25.1,3.564-8.367-.961-9.807-.961-9.807Z" transform="translate(-12458.11 -4222.137)" fill="#fff" fill-rule="evenodd"/>
      <path id="Pfad_20" data-name="Pfad 20" d="M17101.324,19965.385c17.418,16.6,13.439,64.6-11.932,56.164-9.738-3.225-11.314-20.436-10.424-33.6C17080.135,19971.076,17083.357,19963.67,17101.324,19965.385Zm14.127,37.922c7.27-54.311-35.8-52.732-40.6-20.639C17066.9,20035.539,17110.445,20040.613,17115.451,20003.307Z" transform="translate(-15331.151 -4210.216)" fill="#fff" fill-rule="evenodd"/>
      <path id="Pfad_21" data-name="Pfad 21" d="M12426.185,20017.738c-10.423-47.66,24.275-55.889,29.9-29.078,2.194,10.563,2.194,30.518-3.978,38.266-8.436,10.492-22.905,4.184-25.853-9.258Zm-5.761-6.926c1.3,16.043,10.013,29.484,28.527,23.383,18.584-6.1,22.562-74.816-15.84-62.676C12420.905,19975.357,12419.19,19995.176,12420.424,20010.813Z" transform="translate(-10996.486 -4219.434)" fill="#fff" fill-rule="evenodd"/>
      <path id="Pfad_22" data-name="Pfad 22" d="M9664.456,20012.121c-3.224,13.029-17.281,19.818-25.717,9.4-6.171-7.545-6.721-28.871-3.771-40.117C9642.1,19954.107,9675.016,19969.332,9664.456,20012.121Zm5.143-3.5c2.194-13.783.754-36.553-9.326-41.764-16.185-8.3-28.322,3.018-30.722,17.967-2.605,16.115-.343,36.209,10.08,42.791,6.1,3.842,16.253,2.469,21.4-.822C9665.9,20023.711,9668.295,20016.785,9669.6,20008.625Z" transform="translate(-8396.388 -4213.818)" fill="#fff" fill-rule="evenodd"/>
      <path id="Pfad_23" data-name="Pfad 23" d="M15914.016,20007.93c-2.057,2.467-1.783-2.676-2.264,5.418-.274,4.32,2.605,9.461,5.761,12.137,18.172,15.7,44.094-13.785,23.864-27.43-9.121-6.174-27.911-5.83-23.247-22.426,1.715-6.035,17.486-16.459,23.727,2.742l1.715,4.254c.549-.754,5.143.82,1.234-10.355-1.234-3.5-2.537-5.211-5.761-6.652-23.384-10.561-39.155,20.436-13.234,30.723,5.691,2.262,12.961,3.7,15.772,8.5,7.749,13.3-7.132,26.813-20.368,18.582-5.006-3.086-4.045-6.514-5.554-11.656-1.165-4.254-.48-1.988-1.714-3.84Z" transform="translate(-14248.692 -4213.257)" fill="#fff" fill-rule="evenodd"/>
      <path id="Pfad_24" data-name="Pfad 24" d="M13239.327,20006.828c0-12.479.96-23.107,10.9-25.645,28.526-7.406,11.04,45.6,18.584,59.316,1.783-2.332,1.1.07,2.125-4.115l.206-15.564c-.069-25.854,4.319-43.82-16.321-43.82-9.12,0-12.068,3.633-14.4,9.051-4.526-10.355.547-5.074-5.692-8.09.068,8.227-2.606,56.094,2.742,62.609,3.224-5.762,1.784-26.816,1.784-33.6Z" transform="translate(-11754.698 -4225.875)" fill="#fff" fill-rule="evenodd"/>
      <path id="Pfad_25" data-name="Pfad 25" d="M1369.68,17640.631l-.411-6.926,135.984.068.617,85.307c8.709,1.852,44.711,2.2,52.734-.41l.754-124.67-2.332,124.395-50.4-.068.274-84.963c-9.326-3.5-125.492-3.225-138.659-.687-.274,2.471-1.509,2.264,1.372,7.955Z" transform="translate(-702.054 -2006.289)" fill="#fff" fill-rule="evenodd"/>
      <path id="Pfad_26" data-name="Pfad 26" d="M14769.521,20037.75c3.018-3.908.96,3.637,2.538-5.758,1.165-6.859-2.948-36.893,2.948-46.7,5.623-9.324,14.538-8.434,22.7-4.25,6.445,22.08-2.4,50.813,4.867,56.643l1.3-50.746c-1.234-7.2-5.555-12.273-13.51-12.824-10.9-.754-13.646,5.213-17.349,8.436-3.43-7.611,0-4.936-5.486-7.338.138,9.326-2.469,55.2,2.057,62.473Z" transform="translate(-13182.375 -4223.126)" fill="#fff" fill-rule="evenodd"/>
      <path id="Pfad_27" data-name="Pfad 27" d="M8932.813,20014.611c-1.166-4.869,1.234-1.92-2.537-4.389l-2.742,6.172c-4.047,17.076-19.2,10.9-21.945,8.846-6.445-4.867-7.474-20.021-6.926-30.516,1.92-33.328,23.315-25.578,26.882-18.994.823,1.508,1.508,5.213,2.126,6.375,3.086,6.037-.892,1.92,4.937,3.7-.96-27.016-38.265-29.828-38.676,12.414-.48,44.572,33.6,41.213,38.882,16.457Z" transform="translate(-7712.131 -4215.553)" fill="#fff" fill-rule="evenodd"/>
      <path id="Pfad_28" data-name="Pfad 28" d="M15492.789,19799.764c-.273-.137-3.84-.959-5.828-1.441l-.206-53.625,10.081-1.439c-2.47-4.457-2.332-2.742-10.081-2.742,0-6.652.822-13.441-1.3-18.516-4.184,2.4-3.018-3.771-3.018,15.979l-2.743,1.508c-5.28,2.607-3.771-.617-5.691,3.7,3.565,1.781,4.252.48,8.435,3.5,0,17.008-2.605,42.449,2.4,56.1,5.418.891,7.269,1.988,12.617-.479-2.674-2.539.068-.756-4.731-2.607Z" transform="translate(-13840.977 -3988.362)" fill="#fff" fill-rule="evenodd"/>
      <path id="Pfad_29" data-name="Pfad 29" d="M17842.617,19676.246c.066-4.117-.686-12.551,1.166-15.844,3.154-5.623,4.732-.82,9.807-5.828-13.92-6.65-15.293,8.23-15.223,19.133a5.788,5.788,0,0,1-1.3.824l-7.062,4.25c3.84,2.059,3.77.344,8.3,3.633v29.557c0,7.133-1.166,20.85,1.373,26.471,4.455-2.742,1.988,3.223,3.154-5.484l-.207-52.871c7.2,0,8.23,2.055,10.219-3.5l-10.355-.275Z" transform="translate(-16035.413 -3924.023)" fill="#fff" fill-rule="evenodd"/>
      <path id="Pfad_30" data-name="Pfad 30" d="M19351.063,19681.063c.207.414.551.551.619,1.3s.412,1.029.479,1.371l.48,51.844c.686,3.43.412,1.781,1.645,3.77,3.7-6.789.824-40.389,1.373-50.676.068-.686.137-2.812.205-3.428.961-5.693.891-2.881,1.51-4.186,6.033.344,4.867.895,9.324-.957-3.291-4.734-2.4-2.266-10.15-3.361-.133-25.854,2.676-13.1,11.043-20.916-4.594-2.605-5.9-1.439-11.795-.137-4.8,8.711-3.223,9.395-4.113,20.984-1.1.344-4.115.82-4.186.891-5.074,2.125-.066-1.029-3.5,3.359l7.2.207Z" transform="translate(-17445.592 -3925.276)" fill="#fff" fill-rule="evenodd"/>
      <path id="Pfad_31" data-name="Pfad 31" d="M18786.469,19658c-5.281,2.744-3.02,14.264-3.02,20.436v45.189c-.066,23.387-1.437,16.871,3.02,19.543,3.223-7.129,2.674-80.025,0-85.1Z" transform="translate(-16923.033 -3928.751)" fill="#fff" fill-rule="evenodd"/>
      <path id="Pfad_32" data-name="Pfad 32" d="M14124.17,15605.219c1.371,3.771-2.537,3.016,2.674,3.086l.206-127.346,51.089-.41-.55,96,4.32-2.605c-5.554-4.525-2.537-39.088-2.537-45.945v-24.344c0-4.047,0-8.16.069-12.207,0-1.3.138-4.113,0-5.279l-1.371-5.623-51.98-.549c-3.223,18.24,2.4,119.6-1.988,125.219Z" transform="translate(-12583.585 -37.257)" fill="#fff" fill-rule="evenodd"/>
      <path id="Pfad_33" data-name="Pfad 33" d="M10729.431,15440.068l1.3,47.934-50.814.138.686-47.8c-4.046,2.331-1.3-.823-2.332,3.565a53.584,53.584,0,0,0-.273,6.721l.548,37.647c8.161,3.018,43.546,2.4,52.872.549l.686-43.477c-1.44-8.16.206-2.606-2.743-5.349Z" transform="translate(-9373.861)" fill="#fff" fill-rule="evenodd"/>
      <path id="Pfad_34" data-name="Pfad 34" d="M19105.383,19992c-1.1,1.715-1.3.754-2.127,4.387-.139.617-.275,2.744-.344,3.43l.205,40.047c-.137,12.275-1.027,9.807,2.266,14.539C19108.879,20048.85,19109.154,19998.514,19105.383,19992Z" transform="translate(-17221.031 -4239.847)" fill="#fff" fill-rule="evenodd"/>
      <path id="Pfad_35" data-name="Pfad 35" d="M14118.068,17678.227c4.869,6.238,1.371,51.844,2.194,60.414,9.189,1.781,44.643,2.262,53.558-.412l-.138-123.229c-3.635,6.238-1.92,6.445-1.646,14.535l.069,108.352-50.677.066-3.429-59.727Z" transform="translate(-12577.964 -2025.849)" fill="#fff" fill-rule="evenodd"/>
      <path id="Pfad_36" data-name="Pfad 36" d="M19445.809,20046c-.615,1.3-.549-1.51-1.508,4.182a27.234,27.234,0,0,0-.205,3.43c-.48,10.285,2.33,43.889-1.373,50.678-1.166-1.92-.959-.275-1.646-3.771l-.479-51.844c-.068-.412-.41-.617-.479-1.371s-.414-.893-.619-1.3l-.344,49.58c-.068,9.395-1.371,8.5,5.762,10.561,2.537-11.727.412-44.574.891-60.072Z" transform="translate(-17534.096 -4290.144)" fill="#fff" fill-rule="evenodd"/>
      <path id="Pfad_37" data-name="Pfad 37" d="M10465.641,19963.127c2.674.48,2.125,1.1,2.125-1.439-2.88-.412-2.469-1.168-2.125,1.439a7.524,7.524,0,0,1-1.1.822l-2.126-2.469c-1.577-.617,5.418-4.732-5.417,0l.617,62.2h4.183l1.44-5.484c.686-8.984-1.51-32.025.549-43.133-4.527,4.045-2.4,16.867-2.4,23.932,0,8.295-.205,16.457.479,24.686h-4.183l.411-49.031c0-.754-.068-8.777,0-8.777,1.372-4.732-3.155-3.771,4.389-4.318l-1.233,6.17c.273.137.754.344.892.412l2.879,2.469c4.938-2.193,1.51,3.291,4.389-4.457a11.882,11.882,0,0,1-1.509.686c-.205.137-1.233,1.166-1.438.754s-1.029.344-1.3.756C10468.727,19959.631,10462.349,19972.316,10465.641,19963.127Z" transform="translate(-9168.017 -4209.326)" fill="#fff" fill-rule="evenodd"/>
      <path id="Pfad_38" data-name="Pfad 38" d="M19104.934,19669.207c.754-1.166,2.742.893,2.2-7.27-.48-7.748-1.1-3.5-2.2-4.937-.822,1.029-2.811-.479-2.469,6.584.412,10.834-.273,1.988,2.469,5.691Z" transform="translate(-17220.584 -3927.819)" fill="#fff" fill-rule="evenodd"/>
      <path id="Pfad_39" data-name="Pfad 39" d="M9384,20596.207l2.743-6.17c3.771,2.535,1.372-.48,2.537,4.387.138-.41,4.32,1.578.275-4.457-1.853-2.811-1.509-.822-3.91-1.369Z" transform="translate(-8168.598 -4795.367)" fill="#fff" fill-rule="evenodd"/>
    </g>
  </g>
</svg>
